<svg viewBox="0 0 2371 293" xmlns="http://www.w3.org/2000/svg" fill-rule="evenodd" clip-rule="evenodd" stroke-linejoin="round" stroke-miterlimit="1.414"><path d="M423.782 241.077L452.991 1.31h43.673l17.357 171.366L568.394 1.31h42.807l-21.116 239.766h-32.54L572.3 75.207l-52.641 165.87h-24.875L476.852 74.916l-20.098 166.16h-32.972zm241.079-25.45c2.797 0 5.206-.556 7.233-1.666 2.022-1.11 3.636-2.48 4.843-4.12 1.207-1.64 2.241-3.881 3.107-6.723.87-2.847 1.472-5.475 1.808-7.884a269.39 269.39 0 0 0 1.085-9.111l6.509-61.168c.29-5.307.53-10.17.723-14.607 0-.29.046-.53.142-.723-.096-3.952-1.105-7.278-3.035-9.977-2.119-2.893-5.348-4.34-9.687-4.34-2.7 0-5.088.576-7.16 1.732-2.074 1.161-3.714 2.557-4.916 4.197-1.207 1.64-2.22 3.906-3.04 6.799-.815 2.888-1.421 5.516-1.803 7.879-.387 2.363-.774 5.373-1.161 9.04l-6.504 61.168c-.484 6.651-.723 11.668-.723 15.04 0 4.048.962 7.425 2.893 10.124 2.021 2.893 5.25 4.34 9.686 4.34zm-3.035 28.052c-18.513 0-31.623-5.205-39.334-15.615-6.172-8.292-9.208-19.38-9.111-33.263 0-3.662.188-7.471.575-11.424l5.786-55.82c2.124-19.282 8.17-34.153 18.147-44.615 9.982-10.46 24.176-15.691 42.588-15.691 18.416 0 31.577 5.205 39.481 15.62 6.27 8.292 9.402 19.282 9.402 32.973 0 3.661-.245 7.568-.723 11.714l-5.786 55.82c-2.119 19.378-8.195 34.27-18.223 44.686-10.023 10.41-24.294 15.615-42.802 15.615zm71.018-2.602L750.77 69.853h39.624l-1.732 16.777c15.229-12.916 29.835-19.38 43.816-19.38 5.011 0 9.305 1.065 12.87 3.184 3.57 2.119 6.147 4.915 7.736 8.388 1.594 3.469 2.725 7.42 3.397 11.857.29 2.027.438 4.1.438 6.218 0 2.41-.193 4.773-.58 7.085l-14.317 137.095H802.4l13.303-127.984c.194-1.731.29-3.325.29-4.772 0-3.081-.432-5.495-1.303-7.227-1.253-2.704-4.14-4.054-8.674-4.054-5.301.097-11.714 2.801-19.231 8.103l-14.322 135.934h-39.618zm174.701 2.312c-7.716-.097-14.148-1.396-19.307-3.901-5.155-2.506-8.939-5.908-11.353-10.197-2.409-4.288-3.998-9.422-4.772-15.401a91.418 91.418 0 0 1-.723-9.254c0-3.377.244-6.942.723-10.7l10.415-97.762H865.61l2.745-26.32h16.777l5.348-50.177h39.771l-5.21 50.176h26.178l-2.75 26.321h-26.173l-10.558 99.64a39.914 39.914 0 0 0-.143 3.326c-.096 3.856.724 6.845 2.46 8.964 2.119 2.506 5.974 3.856 11.567 4.05 3.661 0 7.761-.337 12.294-1.014l-3.183 30.37c-11.668 1.252-20.342 1.879-26.03 1.879h-1.157zm39.202-2.312l17.932-171.224h39.624l-2.602 26.03c12.625-18.798 25.643-28.194 39.043-28.194 2.027 0 4.049.24 6.076.723l-4.34 39.624c-4.532-1.737-9.304-2.608-14.316-2.608-5.689.194-10.823 1.569-15.401 4.126-4.579 2.551-9.234 6.962-13.955 13.231L986.37 241.077h-39.623zm143.175-25.45c2.796 0 5.205-.556 7.232-1.666 2.022-1.11 3.642-2.48 4.844-4.12 1.207-1.64 2.24-3.881 3.112-6.723.866-2.847 1.467-5.475 1.808-7.884.336-2.409.698-5.444 1.085-9.111l6.504-61.168c.29-5.307.53-10.17.723-14.607 0-.29.05-.53.147-.723-.096-3.952-1.11-7.278-3.04-9.977-2.119-2.893-5.348-4.34-9.687-4.34-2.7 0-5.088.576-7.16 1.732-2.069 1.161-3.709 2.557-4.916 4.197-1.202 1.64-2.215 3.906-3.035 6.799-.82 2.888-1.421 5.516-1.808 7.879-.387 2.363-.774 5.373-1.156 9.04l-6.51 61.168c-.483 6.651-.722 11.668-.722 15.04 0 4.048.962 7.425 2.892 10.124 2.022 2.893 5.256 4.34 9.687 4.34zm-3.035 28.052c-18.508 0-31.623-5.205-39.334-15.615-6.173-8.292-9.208-19.38-9.111-33.263 0-3.662.193-7.471.58-11.424l5.781-55.82c2.124-19.282 8.174-34.153 18.152-44.615 9.977-10.46 24.171-15.691 42.588-15.691 18.411 0 31.572 5.205 39.481 15.62 6.265 8.292 9.397 19.282 9.397 32.973 0 3.661-.24 7.568-.723 11.714l-5.786 55.82c-2.119 19.378-8.195 34.27-18.218 44.686-10.028 10.41-24.299 15.615-42.807 15.615zm114.543.001c-14.17 0-25.354-3.979-33.548-11.929-8.195-7.955-13.064-19.353-14.607-34.205l31.526-10.843c2.124 19.282 8.724 28.924 19.812 28.924h.433c4.436-.194 8.194-1.783 11.28-4.773 3.087-2.99 4.727-6.702 4.916-11.138v-.723c0-6.168-4.58-13.594-13.736-22.267l-21.692-20.393c-13.11-12.243-19.67-25.114-19.67-38.61 0-1.834.149-3.713.434-5.638 1.737-13.695 7.451-24.584 17.138-32.687 9.692-8.098 21.523-12.147 35.504-12.147 13.303 0 23.692 4.074 31.164 12.223 7.471 8.144 11.643 18.967 12.509 32.463l-27.335 10.848c-1.635-17.836-7.471-26.804-17.495-26.901h-.432c-4.146 0-7.62 1.35-10.416 4.049-2.893 2.7-4.527 5.98-4.914 9.835v1.013c0 5.012 3.758 11.281 11.276 18.798l22.129 22.272c7.42 7.039 13.063 14.123 16.919 21.259 3.086 5.689 4.63 12.243 4.63 19.664 0 1.834-.097 3.713-.29 5.643-1.544 14.46-7.472 25.618-17.79 33.477-10.314 7.858-22.894 11.785-37.745 11.785zm112.52 0c-19.664 0-33.16-5.4-40.49-16.197-5.592-8.291-8.337-19.67-8.24-34.128 0-4.436.24-9.158.723-14.174l5.058-47.142c2.22-21.497 8.149-37.673 17.79-48.516 9.64-10.848 24.1-16.272 43.382-16.272 10.314 0 18.824 1.568 25.522 4.7 6.702 3.133 11.596 7.64 14.683 13.523 3.275 5.979 5.302 13.206 6.07 21.691.291 3.183.434 6.555.434 10.125 0 5.78-.433 12.05-1.3 18.798l-2.316 21.401h-67.534l-2.745 25.165c-.581 5.786-.963 11.088-1.157 15.906v1.594c0 4.146.917 7.563 2.746 10.267 2.027 3.082 5.398 4.58 10.125 4.482 5.689 0 9.783-1.955 12.29-5.857 2.51-3.906 4.099-9.615 4.771-17.138l1.447-13.16h37.744l-1.156 10.125c-1.833 17.739-7.594 31.307-17.28 40.709-9.687 9.396-23.21 14.097-40.567 14.097zm-4.049-106.288h29.647l1.737-16.343c.29-2.99.433-5.69.433-8.098 0-4.823-.581-8.485-1.737-10.991-1.732-3.856-5.399-5.832-10.99-5.928-5.787 0-9.927 2.17-12.438 6.503-2.506 4.34-4.385 12.34-5.638 24.009l-1.014 10.848zm70.437 103.685l4.197-39.624h38.61l-4.191 39.624h-38.616zm53.956 0l17.933-171.224h39.624l-17.933 171.224h-39.624zm20.82-198.12l3.616-34.129h39.772l-3.616 34.129h-39.772zm82.589 200.723c-14.174 0-25.358-3.979-33.553-11.929-8.194-7.955-13.063-19.353-14.601-34.205l31.52-10.843c2.124 19.282 8.73 28.924 19.817 28.924h.433c4.431-.194 8.195-1.783 11.276-4.773 3.087-2.99 4.727-6.702 4.92-11.138v-.723c0-6.168-4.578-13.594-13.74-22.267l-21.692-20.393c-13.11-12.243-19.664-25.114-19.664-38.61 0-1.834.142-3.713.433-5.638 1.736-13.695 7.446-24.584 17.138-32.687 9.687-8.098 21.518-12.147 35.498-12.147 13.308 0 23.693 4.074 31.165 12.223 7.471 8.144 11.642 18.967 12.508 32.463l-27.33 10.848c-1.64-17.836-7.47-26.804-17.499-26.901h-.433c-4.146 0-7.619 1.35-10.41 4.049-2.893 2.7-4.533 5.98-4.92 9.835v1.013c0 5.012 3.759 11.281 11.281 18.798l22.124 22.272c7.426 7.039 13.064 14.123 16.92 21.259 3.086 5.689 4.63 12.243 4.63 19.664 0 1.834-.098 3.713-.291 5.643-1.543 14.46-7.472 25.618-17.785 33.477-10.319 7.858-22.898 11.785-37.745 11.785zm56.121-2.603L1686.232 1.31h28.343l-92.551 239.766h-28.2zm162.987 51.918c-5.108 0-9.564-.05-13.374-.148-3.81-.096-8.195-.361-13.16-.794-4.966-.433-9.183-1.034-12.652-1.808-3.473-.77-7.013-1.854-10.629-3.255-3.616-1.395-6.509-3.086-8.678-5.062-2.17-1.976-3.83-4.457-4.991-7.446-.866-2.216-1.3-4.676-1.3-7.375 0-.866.047-1.782.143-2.75 1.64-14.846 10.945-26.993 27.91-36.44-10.7-3.856-16.048-10.075-16.048-18.657 0-6.361 1.88-11.907 5.638-16.629 3.565-4.436 9.305-9.64 17.21-15.62-5.883-4.818-10.029-10.894-12.438-18.218-1.543-4.726-2.312-10.46-2.312-17.21 0-3.758.24-7.858.723-12.294 4.334-41.355 24.004-62.038 58.998-62.038 17.836 0 29.407 5.643 34.71 16.919 2.312-2.506 5.81-5.541 10.486-9.107 4.675-3.57 9.519-6.508 14.53-8.82l5.929-2.603 6.942 22.557c-3.469.866-8.796 2.602-15.977 5.205-7.187 2.603-11.933 4.579-14.246 5.928 1.35 3.377 2.364 8.15 3.036 14.317.387 3.28.58 6.56.58 9.835 0 2.796-.147 5.592-.438 8.388-4.237 39.237-23.229 58.855-56.976 58.855-2.699 0-6.412-.382-11.133-1.156-4.726-.77-7.71-1.446-8.969-2.022-3.758 4.818-5.684 8.53-5.78 11.133-.097 2.124.988 3.76 3.254 4.915 2.261 1.161 5.949 1.976 11.062 2.46.77.097 5.567.58 14.388 1.447 8.821.865 14.098 1.446 15.834 1.736 13.98 1.544 23.958 5.69 29.937 12.438 4.818 5.495 7.278 12.966 7.375 22.414 0 2.119-.148 4.385-.433 6.794-1.737 15.233-7.16 26.392-16.272 33.482-9.112 7.084-23.403 10.63-42.879 10.63zm2.75-28.2c8.292 0 14.414-1.085 18.366-3.255s6.316-5.663 7.085-10.486a19.38 19.38 0 0 0 .29-3.183c0-3.469-1.06-6.168-3.183-8.098-2.7-2.41-7.808-3.952-15.325-4.625l-27.044-2.46c-6.845 7.136-10.507 13.497-10.991 19.089-.097.58-.143 1.156-.143 1.737 0 2.409.53 4.288 1.59 5.638 1.252 1.736 4.216 3.112 8.892 4.125 4.675 1.009 11.5 1.518 20.464 1.518zm2.603-102.1c6.845 0 11.567-2.506 14.174-7.518 2.603-5.011 4.625-13.93 6.071-26.754.774-7.232 1.156-13.303 1.156-18.223v-1.589c-.097-5.205-1.202-9.111-3.326-11.714-2.118-2.602-5.592-3.9-10.41-3.9-6.942 0-11.714 2.602-14.316 7.807-2.603 5.205-4.579 14.413-5.929 27.62-.677 5.979-1.013 11.23-1.013 15.762v2.603c.193 5.011 1.375 8.918 3.545 11.714 2.17 2.796 5.515 4.191 10.048 4.191zm98.495 80.985c-10.706-.098-19.043-4.29-25.017-12.58-5.114-7.04-7.665-14.898-7.665-23.571 0-1.544.096-3.087.285-4.63.677-5.882 1.93-11.352 3.764-16.415 1.828-5.057 4.069-9.493 6.722-13.303 2.654-3.81 5.786-7.375 9.402-10.7 3.611-3.326 7.304-6.173 11.062-8.531 3.759-2.363 7.95-4.655 12.58-6.87 4.63-2.216 8.99-4.147 13.09-5.787a411.289 411.289 0 0 1 13.374-5.062 682.015 682.015 0 0 1 5.928-2.17l1.446-14.168c.29-3.184.433-6.077.433-8.68v-3.758c-.188-3.473-1.253-6.096-3.178-7.884-1.93-1.782-4.772-2.674-8.536-2.674-9.447 0-14.846 6.458-16.196 19.38l-1.589 10.557-38.177-1.594c.097-.575.265-1.64.504-3.178.244-1.543.413-2.557.51-3.04 2.984-17.831 9.59-30.92 19.811-39.263 10.217-8.337 24.004-12.508 41.356-12.508 16.873 0 28.877 4.578 36.013 13.74 5.684 7.325 8.53 17.063 8.53 29.21 0 3.086-.193 6.366-.58 9.834l-8.24 78.092c-.963 9.06-1.447 19.231-1.447 30.512 0 4.05.046 8.195.143 12.438h-35.86c-1.162-10.894-1.737-19.283-1.737-25.165-3.087 7.813-7.762 14.393-14.032 19.74-6.264 5.353-13.832 8.027-22.7 8.027zm18.508-31.094c3.086 0 6.34-1.202 9.763-3.616 3.423-2.41 6.142-4.818 8.17-7.227l4.914-46.999c-21.4 11.088-32.875 23.668-34.413 37.745a36.003 36.003 0 0 0-.29 4.482c0 4.242.768 7.665 2.311 10.267 2.028 3.565 5.206 5.348 9.545 5.348zm70.584 28.491l17.933-171.224h39.476l-1.446 15.478c14.174-12.055 28.633-18.08 43.382-18.08 12.922 0 20.683 6.799 23.286 20.392 15.233-13.593 30.563-20.392 45.985-20.392 5.017 0 9.305 1.064 12.87 3.183 3.57 2.119 6.122 4.915 7.665 8.388 1.543 3.469 2.654 7.42 3.326 11.857.387 2.22.555 4.436.51 6.651a62.095 62.095 0 0 1-.51 6.652l-14.46 137.095h-39.48l13.308-127.984a49.83 49.83 0 0 0 .285-5.057c0-2.893-.382-5.21-1.156-6.942-1.35-2.704-4.34-4.054-8.964-4.054-5.113.097-11.475 2.704-19.089 7.813 0 1.06-.05 1.64-.148 1.736l-14.168 134.488h-39.334l13.303-127.984a39.47 39.47 0 0 0 .285-4.624c.097-3.183-.336-5.643-1.298-7.375-1.35-2.704-4.34-4.054-8.964-4.054-4.92.097-11.185 2.653-18.804 7.665l-14.316 136.372h-39.477zm247.589 2.603c-19.67 0-33.166-5.4-40.495-16.197-5.592-8.291-8.337-19.67-8.24-34.128 0-4.436.239-9.158.723-14.174l5.062-47.142c2.216-21.497 8.144-37.673 17.785-48.516 9.641-10.848 24.1-16.272 43.383-16.272 10.318 0 18.824 1.568 25.526 4.7 6.703 3.133 11.592 7.64 14.678 13.523 3.275 5.979 5.302 13.206 6.071 21.691.29 3.183.438 6.555.438 10.125 0 5.78-.438 12.05-1.304 18.798l-2.312 21.401h-67.534l-2.75 25.165c-.576 5.786-.963 11.088-1.156 15.906v1.594c0 4.146.917 7.563 2.75 10.267 2.022 3.082 5.399 4.58 10.12 4.482 5.689 0 9.784-1.955 12.295-5.857 2.505-3.906 4.094-9.615 4.772-17.138l1.446-13.16h37.74l-1.156 10.125c-1.829 17.739-7.589 31.307-17.281 40.709-9.687 9.396-23.21 14.097-40.561 14.097zm-4.05-106.288h29.642l1.737-16.343c.29-2.99.433-5.69.433-8.098 0-4.823-.575-8.485-1.732-10.991-1.736-3.856-5.398-5.832-10.99-5.928-5.786 0-9.932 2.17-12.438 6.503-2.505 4.34-4.385 12.34-5.643 24.009l-1.008 10.848zm115.99 106.288c-14.174 0-25.353-3.979-33.548-11.929-8.195-7.955-13.064-19.353-14.607-34.205l31.526-10.843c2.119 19.282 8.725 28.924 19.812 28.924h.433c4.436-.194 8.195-1.783 11.281-4.773 3.081-2.99 4.721-6.702 4.915-11.138v-.723c0-6.168-4.579-13.594-13.736-22.267l-21.696-20.393c-13.11-12.243-19.665-25.114-19.665-38.61 0-1.834.143-3.713.433-5.638 1.737-13.695 7.446-24.584 17.138-32.687 9.687-8.098 21.524-12.147 35.499-12.147 13.308 0 23.693 4.074 31.164 12.223 7.472 8.144 11.643 18.967 12.509 32.463l-27.33 10.848c-1.64-17.836-7.471-26.804-17.5-26.901h-.432c-4.146 0-7.614 1.35-10.41 4.049-2.893 2.7-4.533 5.98-4.92 9.835v1.013c0 5.012 3.764 11.281 11.28 18.798l22.125 22.272c7.426 7.039 13.064 14.123 16.92 21.259 3.086 5.689 4.629 12.243 4.629 19.664 0 1.834-.097 3.713-.29 5.643-1.544 14.46-7.472 25.618-17.785 33.477-10.319 7.858-22.899 11.785-37.745 11.785z" fill-rule="nonzero"/><path d="M405.012 59.469c0-32.82-26.65-59.467-59.472-59.467H59.47C26.647.002-.002 26.65-.002 59.47v118.927c0 32.82 26.649 59.467 59.472 59.467h286.07c32.823 0 59.472-26.647 59.472-59.467V59.47z" fill="#fff"/><path d="M115.12 151.097c-1.796 8.807-5.817 17.813-12.196 26.096-6.173 7.985-15.853 13.662-26.156 17.553-3.502 12.591-2.786 32.99-2.786 32.99l-18.3-1.077s.002-14.72 1.934-26.624c-2.686.517-5.272.9-7.722 1.204a60.12 60.12 0 0 0-1.447 13.117c0 8.177 1.64 15.993 4.625 23.167C23.258 234.326.007 209.056.007 178.397V59.467C.007 26.649 26.652.003 59.473.003h96.134c-8.755 12.394-17.634 25.358-23.842 34.648-29.511 44.181-38.413 65.235-39.504 68.682 2.4-1.997 20.781-20.438 49.027-65.351 6.316-10.05 15.146-24.44 23.25-37.98h89.572c-19.037 12.303-42.168 27.94-59.402 40.269-62.777 44.92-80.065 67.213-83.265 71.346 4.235-1.577 29.643-16.962 92.868-61.325 20.223-14.183 45.98-34.947 63.744-50.29h77.495c32.819 0 59.465 26.647 59.465 59.467v118.93c0 32.818-26.643 59.463-59.465 59.465H177.414a60.11 60.11 0 0 0 4.771-23.507c0-14.28-5.005-27.447-13.44-38.037l4.122-4.4c4.27 2.58 11.662 6.332 14.218 3.028.875-1.142.771-2.628-.237-4.424 2.219.505 4.175.385 5.256-1.015 1.535-1.983.18-4.997-4.024-8.987-.325-.31-.63-.61-.917-.92 2.066-1.059 3.483-3.109 3.483-5.496 0-3.473-2.96-6.277-6.624-6.277-3.193 0-5.852 2.106-6.508 4.927-.342-.139-.653-.261-.85-.365-6.007-3.135-9.906-3.654-11.564-1.502-.96 1.242-.686 2.8.208 4.42-2.491-.57-4.26-.252-5.234 1.015-2.397 3.124 2.783 8.162 6.665 11.294l-2.965 3.171c-12.184-12.123-29.378-19.69-48.452-19.691h-.202zm190.188-3.618c15.965 0 28.928 12.962 28.928 28.929 0 15.967-12.963 28.93-28.928 28.93-15.967 0-28.93-12.963-28.93-28.93s12.963-28.93 28.93-28.93zm-205.104 27.485c17.774-23.017 17.156-52.085-1.388-64.89-18.55-12.813-47.987-4.522-65.764 18.518-17.779 23.036-6.835 65.916-2.662 69.342 4.173 3.392 52.04.076 69.814-22.97zm-39.499 13.264c-8.507-3.686-9.12-23.547 1.519-39.598 10.642-16.054 27.226-24.338 37.029-18.517 9.806 5.828 9.133 23.554-1.509 39.603-5.256 7.921-24.356 22.562-37.039 18.512zm297.43-99.265c15.966 0 28.929 12.962 28.929 28.929 0 15.967-12.963 28.93-28.93 28.93-15.966 0-28.929-12.963-28.929-28.93s12.963-28.93 28.93-28.93zm-107.28 0c15.966 0 28.929 12.962 28.929 28.929 0 15.967-12.963 28.93-28.928 28.93-15.967 0-28.93-12.963-28.93-28.93s12.963-28.93 28.93-28.93zm54.453-60.142c15.965 0 28.928 12.963 28.928 28.93 0 15.966-12.963 28.929-28.928 28.929-15.967 0-28.93-12.963-28.93-28.93 0-15.966 12.963-28.93 28.93-28.93z"/><circle cx="1843.97" cy="2505.56" r="43.617" transform="translate(-404.796 -918.768) scale(.41374)"/><circle cx="1843.97" cy="2505.56" r="43.617" transform="translate(-457.623 -860.252) scale(.41374)"/><circle cx="1843.97" cy="2505.56" r="43.617" transform="translate(-512.075 -918.768) scale(.41374)"/><circle cx="1843.97" cy="2505.56" r="43.617" transform="translate(-457.623 -978.91) scale(.41374)"/></svg>