<?xml version="1.0" encoding="UTF-8" standalone="no"?>
<!DOCTYPE svg PUBLIC "-//W3C//DTD SVG 1.1//EN" "http://www.w3.org/Graphics/SVG/1.1/DTD/svg11.dtd">
<svg width="100%" height="100%" viewBox="0 0 2371 293" version="1.1" xmlns="http://www.w3.org/2000/svg" xmlns:xlink="http://www.w3.org/1999/xlink" xml:space="preserve" style="fill-rule:evenodd;clip-rule:evenodd;stroke-linejoin:round;stroke-miterlimit:1.41421;">
    <g transform="matrix(0.5,0,0,0.5,-54.5551,-65.5572)">
        <g id="Girls" transform="matrix(1.01861,0,0,1.01861,-1169.99,-840.289)">
            <g transform="matrix(1,0,0,1,-862.44,-1438.3)">
                <path d="M2950.25,2865.3L3007.6,2394.53L3093.35,2394.53L3127.43,2731L3234.19,2394.53L3318.24,2394.53L3276.78,2865.3L3212.89,2865.3L3241.86,2539.62L3138.5,2865.3L3089.66,2865.3L3054.45,2539.05L3014.99,2865.3L2950.25,2865.3Z" style="fill-rule:nonzero;"/>
                <path d="M3423.6,2815.33C3429.09,2815.33 3433.82,2814.24 3437.8,2812.06C3441.77,2809.88 3444.94,2807.19 3447.31,2803.97C3449.68,2800.75 3451.71,2796.35 3453.41,2790.77C3455.12,2785.18 3456.3,2780.02 3456.96,2775.29C3457.62,2770.56 3458.34,2764.6 3459.09,2757.4L3471.87,2637.3C3472.44,2626.88 3472.91,2617.33 3473.29,2608.62C3473.29,2608.05 3473.38,2607.58 3473.57,2607.2C3473.38,2599.44 3471.4,2592.91 3467.61,2587.61C3463.45,2581.93 3457.11,2579.09 3448.59,2579.09C3443.29,2579.09 3438.6,2580.22 3434.53,2582.49C3430.46,2584.77 3427.24,2587.51 3424.88,2590.73C3422.51,2593.95 3420.52,2598.4 3418.91,2604.08C3417.31,2609.75 3416.12,2614.91 3415.37,2619.55C3414.61,2624.19 3413.85,2630.1 3413.09,2637.3L3400.32,2757.4C3399.37,2770.46 3398.9,2780.31 3398.9,2786.93C3398.9,2794.88 3400.79,2801.51 3404.58,2806.81C3408.55,2812.49 3414.89,2815.33 3423.6,2815.33ZM3417.64,2870.41C3381.29,2870.41 3355.55,2860.19 3340.41,2839.75C3328.29,2823.47 3322.33,2801.7 3322.52,2774.44C3322.52,2767.25 3322.89,2759.77 3323.65,2752.01L3335.01,2642.41C3339.18,2604.55 3351.05,2575.35 3370.64,2554.81C3390.24,2534.27 3418.11,2524 3454.26,2524C3490.42,2524 3516.26,2534.22 3531.78,2554.67C3544.09,2570.95 3550.24,2592.53 3550.24,2619.41C3550.24,2626.6 3549.76,2634.27 3548.82,2642.41L3537.46,2752.01C3533.3,2790.06 3521.37,2819.3 3501.68,2839.75C3482,2860.19 3453.98,2870.41 3417.64,2870.41Z" style="fill-rule:nonzero;"/>
                <path d="M3557.08,2865.3L3592.28,2529.11L3670.08,2529.11L3666.68,2562.05C3696.58,2536.69 3725.26,2524 3752.71,2524C3762.55,2524 3770.98,2526.09 3777.98,2530.25C3784.99,2534.41 3790.05,2539.9 3793.17,2546.72C3796.3,2553.53 3798.52,2561.29 3799.84,2570C3800.41,2573.98 3800.7,2578.05 3800.7,2582.21C3800.7,2586.94 3800.32,2591.58 3799.56,2596.12L3771.45,2865.3L3693.65,2865.3L3719.77,2614.01C3720.15,2610.61 3720.34,2607.48 3720.34,2604.64C3720.34,2598.59 3719.49,2593.85 3717.78,2590.45C3715.32,2585.14 3709.65,2582.49 3700.75,2582.49C3690.34,2582.68 3677.75,2587.99 3662.99,2598.4L3634.87,2865.3L3557.08,2865.3Z" style="fill-rule:nonzero;"/>
                <path d="M3900.1,2869.84C3884.95,2869.65 3872.32,2867.1 3862.19,2862.18C3852.07,2857.26 3844.64,2850.58 3839.9,2842.16C3835.17,2833.74 3832.05,2823.66 3830.53,2811.92C3829.78,2806.24 3829.3,2800.18 3829.11,2793.75C3829.11,2787.12 3829.59,2780.12 3830.53,2772.74L3850.98,2580.79L3817.76,2580.79L3823.15,2529.11L3856.09,2529.11L3866.59,2430.59L3944.68,2430.59L3934.45,2529.11L3985.85,2529.11L3980.45,2580.79L3929.06,2580.79L3908.33,2776.43C3908.14,2778.7 3908.05,2780.88 3908.05,2782.96C3907.86,2790.53 3909.47,2796.4 3912.88,2800.56C3917.04,2805.48 3924.61,2808.13 3935.59,2808.51C3942.78,2808.51 3950.83,2807.85 3959.73,2806.52L3953.48,2866.15C3930.57,2868.61 3913.54,2869.84 3902.37,2869.84C3901.61,2869.84 3900.86,2869.84 3900.1,2869.84Z" style="fill-rule:nonzero;"/>
                <path d="M3977.07,2865.3L4012.28,2529.11L4090.08,2529.11L4084.97,2580.22C4109.76,2543.31 4135.32,2524.86 4161.63,2524.86C4165.61,2524.86 4169.58,2525.33 4173.56,2526.28L4165.04,2604.08C4156.14,2600.67 4146.77,2598.96 4136.93,2598.96C4125.76,2599.34 4115.68,2602.04 4106.69,2607.06C4097.7,2612.07 4088.56,2620.73 4079.29,2633.04L4054.87,2865.3L3977.07,2865.3Z" style="fill-rule:nonzero;"/>
                <path d="M4258.19,2815.33C4263.68,2815.33 4268.41,2814.24 4272.39,2812.06C4276.36,2809.88 4279.54,2807.19 4281.9,2803.97C4284.27,2800.75 4286.3,2796.35 4288.01,2790.77C4289.71,2785.18 4290.89,2780.02 4291.56,2775.29C4292.22,2770.56 4292.93,2764.6 4293.69,2757.4L4306.46,2637.3C4307.03,2626.88 4307.5,2617.33 4307.88,2608.62C4307.88,2608.05 4307.98,2607.58 4308.17,2607.2C4307.98,2599.44 4305.99,2592.91 4302.2,2587.61C4298.04,2581.93 4291.7,2579.09 4283.18,2579.09C4277.88,2579.09 4273.19,2580.22 4269.12,2582.49C4265.06,2584.77 4261.84,2587.51 4259.47,2590.73C4257.11,2593.95 4255.12,2598.4 4253.51,2604.08C4251.9,2609.75 4250.72,2614.91 4249.96,2619.55C4249.2,2624.19 4248.44,2630.1 4247.69,2637.3L4234.91,2757.4C4233.96,2770.46 4233.49,2780.31 4233.49,2786.93C4233.49,2794.88 4235.38,2801.51 4239.17,2806.81C4243.14,2812.49 4249.49,2815.33 4258.19,2815.33ZM4252.23,2870.41C4215.89,2870.41 4190.14,2860.19 4175,2839.75C4162.88,2823.47 4156.92,2801.7 4157.11,2774.44C4157.11,2767.25 4157.49,2759.77 4158.25,2752.01L4169.6,2642.41C4173.77,2604.55 4185.65,2575.35 4205.24,2554.81C4224.83,2534.27 4252.7,2524 4288.86,2524C4325.01,2524 4350.85,2534.22 4366.38,2554.67C4378.68,2570.95 4384.83,2592.53 4384.83,2619.41C4384.83,2626.6 4384.36,2634.27 4383.41,2642.41L4372.05,2752.01C4367.89,2790.06 4355.96,2819.3 4336.28,2839.75C4316.59,2860.19 4288.57,2870.41 4252.23,2870.41Z" style="fill-rule:nonzero;"/>
                <path d="M4477.13,2870.41C4449.31,2870.41 4427.35,2862.6 4411.26,2846.99C4395.17,2831.37 4385.61,2808.99 4382.58,2779.83L4444.48,2758.54C4448.65,2796.4 4461.61,2815.33 4483.38,2815.33C4483.76,2815.33 4484.04,2815.33 4484.23,2815.33C4492.94,2814.95 4500.32,2811.83 4506.38,2805.96C4512.44,2800.09 4515.66,2792.8 4516.03,2784.09C4516.03,2783.53 4516.03,2783.05 4516.03,2782.67C4516.03,2770.56 4507.04,2755.98 4489.06,2738.95L4446.47,2698.91C4420.73,2674.87 4407.85,2649.6 4407.85,2623.1C4407.85,2619.5 4408.14,2615.81 4408.7,2612.03C4412.11,2585.14 4423.33,2563.76 4442.35,2547.85C4461.38,2531.95 4484.61,2524 4512.06,2524C4538.18,2524 4558.58,2532 4573.25,2548C4587.92,2563.99 4596.11,2585.24 4597.81,2611.74L4544.14,2633.04C4540.93,2598.02 4529.47,2580.41 4509.79,2580.22C4509.41,2580.22 4509.12,2580.22 4508.94,2580.22C4500.8,2580.22 4493.98,2582.87 4488.49,2588.17C4482.81,2593.47 4479.6,2599.91 4478.84,2607.48C4478.84,2608.24 4478.84,2608.9 4478.84,2609.47C4478.84,2619.31 4486.22,2631.62 4500.98,2646.38L4544.43,2690.11C4559,2703.93 4570.08,2717.84 4577.65,2731.85C4583.71,2743.02 4586.74,2755.89 4586.74,2770.46C4586.74,2774.06 4586.55,2777.75 4586.17,2781.54C4583.14,2809.93 4571.5,2831.84 4551.24,2847.27C4530.99,2862.7 4506.29,2870.41 4477.13,2870.41Z" style="fill-rule:nonzero;"/>
                <path d="M4698.06,2870.41C4659.45,2870.41 4632.95,2859.81 4618.56,2838.61C4607.58,2822.33 4602.19,2799.99 4602.38,2771.6C4602.38,2762.89 4602.85,2753.62 4603.8,2743.77L4613.73,2651.21C4618.09,2609 4629.73,2577.24 4648.66,2555.95C4667.59,2534.65 4695.98,2524 4733.84,2524C4754.09,2524 4770.8,2527.08 4783.95,2533.23C4797.11,2539.38 4806.72,2548.23 4812.78,2559.78C4819.21,2571.52 4823.19,2585.71 4824.7,2602.37C4825.27,2608.62 4825.55,2615.24 4825.55,2622.25C4825.55,2633.6 4824.7,2645.91 4823,2659.16L4818.45,2701.18L4685.85,2701.18L4680.46,2750.59C4679.32,2761.95 4678.57,2772.36 4678.19,2781.82C4678.19,2782.77 4678.19,2783.81 4678.19,2784.95C4678.19,2793.09 4679.99,2799.8 4683.58,2805.11C4687.56,2811.16 4694.18,2814.1 4703.46,2813.91C4714.63,2813.91 4722.67,2810.07 4727.59,2802.41C4732.52,2794.74 4735.64,2783.53 4736.96,2768.76L4739.8,2742.92L4813.91,2742.92L4811.64,2762.8C4808.04,2797.63 4796.73,2824.27 4777.71,2842.73C4758.69,2861.18 4732.14,2870.41 4698.06,2870.41ZM4690.11,2661.72L4748.32,2661.72L4751.73,2629.63C4752.3,2623.76 4752.58,2618.46 4752.58,2613.73C4752.58,2604.26 4751.44,2597.07 4749.17,2592.15C4745.77,2584.58 4738.57,2580.7 4727.59,2580.51C4716.23,2580.51 4708.1,2584.77 4703.17,2593.28C4698.25,2601.8 4694.56,2617.51 4692.1,2640.42L4690.11,2661.72Z" style="fill-rule:nonzero;"/>
                <path d="M4828.41,2865.3L4836.65,2787.5L4912.46,2787.5L4904.23,2865.3L4828.41,2865.3Z" style="fill-rule:nonzero;"/>
                <path d="M4934.35,2865.3L4969.56,2529.11L5047.36,2529.11L5012.15,2865.3L4934.35,2865.3ZM4975.23,2476.3L4982.33,2409.29L5060.42,2409.29L5053.32,2476.3L4975.23,2476.3Z" style="fill-rule:nonzero;"/>
                <path d="M5137.39,2870.41C5109.56,2870.41 5087.6,2862.6 5071.51,2846.99C5055.42,2831.37 5045.86,2808.99 5042.84,2779.83L5104.73,2758.54C5108.9,2796.4 5121.87,2815.33 5143.64,2815.33C5144.01,2815.33 5144.3,2815.33 5144.49,2815.33C5153.19,2814.95 5160.58,2811.83 5166.63,2805.96C5172.69,2800.09 5175.91,2792.8 5176.29,2784.09C5176.29,2783.53 5176.29,2783.05 5176.29,2782.67C5176.29,2770.56 5167.3,2755.98 5149.31,2738.95L5106.72,2698.91C5080.98,2674.87 5068.11,2649.6 5068.11,2623.1C5068.11,2619.5 5068.39,2615.81 5068.96,2612.03C5072.37,2585.14 5083.58,2563.76 5102.61,2547.85C5121.63,2531.95 5144.86,2524 5172.31,2524C5198.44,2524 5218.83,2532 5233.5,2548C5248.17,2563.99 5256.36,2585.24 5258.06,2611.74L5204.4,2633.04C5201.18,2598.02 5189.73,2580.41 5170.04,2580.22C5169.66,2580.22 5169.38,2580.22 5169.19,2580.22C5161.05,2580.22 5154.23,2582.87 5148.75,2588.17C5143.07,2593.47 5139.85,2599.91 5139.09,2607.48C5139.09,2608.24 5139.09,2608.9 5139.09,2609.47C5139.09,2619.31 5146.47,2631.62 5161.24,2646.38L5204.68,2690.11C5219.26,2703.93 5230.33,2717.84 5237.9,2731.85C5243.96,2743.02 5246.99,2755.89 5246.99,2770.46C5246.99,2774.06 5246.8,2777.75 5246.42,2781.54C5243.39,2809.93 5231.75,2831.84 5211.5,2847.27C5191.24,2862.7 5166.54,2870.41 5137.39,2870.41Z" style="fill-rule:nonzero;"/>
                <path d="M5247.58,2865.3L5429.02,2394.53L5484.67,2394.53L5302.95,2865.3L5247.58,2865.3Z" style="fill-rule:nonzero;"/>
                <path d="M5567.6,2967.24C5557.57,2967.24 5548.82,2967.14 5541.34,2966.95C5533.86,2966.76 5525.25,2966.24 5515.5,2965.39C5505.75,2964.54 5497.47,2963.36 5490.66,2961.84C5483.84,2960.33 5476.89,2958.2 5469.79,2955.45C5462.69,2952.71 5457.01,2949.39 5452.75,2945.51C5448.49,2941.63 5445.23,2936.76 5442.95,2930.89C5441.25,2926.54 5440.4,2921.71 5440.4,2916.41C5440.4,2914.71 5440.49,2912.91 5440.68,2911.01C5443.9,2881.86 5462.17,2858.01 5495.48,2839.46C5474.47,2831.89 5463.97,2819.68 5463.97,2802.83C5463.97,2790.34 5467.66,2779.45 5475.04,2770.18C5482.04,2761.47 5493.31,2751.25 5508.83,2739.51C5497.28,2730.05 5489.14,2718.12 5484.41,2703.74C5481.38,2694.46 5479.87,2683.2 5479.87,2669.95C5479.87,2662.57 5480.34,2654.52 5481.29,2645.81C5489.8,2564.61 5528.42,2524 5597.13,2524C5632.15,2524 5654.87,2535.08 5665.28,2557.22C5669.82,2552.3 5676.69,2546.34 5685.87,2539.34C5695.05,2532.33 5704.56,2526.56 5714.4,2522.02L5726.04,2516.91L5739.67,2561.2C5732.86,2562.9 5722.4,2566.31 5708.3,2571.42C5694.19,2576.53 5684.87,2580.41 5680.33,2583.06C5682.98,2589.69 5684.97,2599.06 5686.29,2611.17C5687.05,2617.61 5687.43,2624.05 5687.43,2630.48C5687.43,2635.97 5687.14,2641.46 5686.57,2646.95C5678.25,2723.99 5640.96,2762.51 5574.7,2762.51C5569.4,2762.51 5562.11,2761.76 5552.84,2760.24C5543.56,2758.73 5537.7,2757.4 5535.23,2756.27C5527.85,2765.73 5524.07,2773.02 5523.88,2778.13C5523.69,2782.3 5525.82,2785.51 5530.27,2787.78C5534.71,2790.06 5541.95,2791.66 5551.99,2792.61C5553.5,2792.8 5562.92,2793.75 5580.24,2795.45C5597.56,2797.15 5607.92,2798.29 5611.33,2798.86C5638.78,2801.89 5658.37,2810.03 5670.11,2823.28C5679.57,2834.07 5684.4,2848.74 5684.59,2867.29C5684.59,2871.45 5684.3,2875.9 5683.74,2880.63C5680.33,2910.54 5669.68,2932.45 5651.79,2946.37C5633.9,2960.28 5605.84,2967.24 5567.6,2967.24ZM5573,2911.87C5589.28,2911.87 5601.3,2909.74 5609.06,2905.48C5616.82,2901.22 5621.46,2894.36 5622.97,2884.89C5623.35,2882.62 5623.54,2880.54 5623.54,2878.64C5623.54,2871.83 5621.46,2866.53 5617.29,2862.74C5611.99,2858.01 5601.96,2854.98 5587.2,2853.66L5534.1,2848.83C5520.66,2862.84 5513.47,2875.33 5512.52,2886.31C5512.33,2887.45 5512.24,2888.58 5512.24,2889.72C5512.24,2894.45 5513.28,2898.14 5515.36,2900.79C5517.82,2904.2 5523.64,2906.9 5532.82,2908.89C5542,2910.87 5555.4,2911.87 5573,2911.87ZM5578.11,2711.4C5591.55,2711.4 5600.82,2706.48 5605.94,2696.64C5611.05,2686.8 5615.02,2669.29 5617.86,2644.11C5619.38,2629.91 5620.13,2617.99 5620.13,2608.33C5620.13,2607.39 5620.13,2606.35 5620.13,2605.21C5619.94,2594.99 5617.77,2587.32 5613.6,2582.21C5609.44,2577.1 5602.62,2574.55 5593.16,2574.55C5579.53,2574.55 5570.16,2579.66 5565.05,2589.88C5559.94,2600.1 5556.06,2618.18 5553.41,2644.11C5552.08,2655.85 5551.42,2666.16 5551.42,2675.06C5551.42,2676.95 5551.42,2678.66 5551.42,2680.17C5551.8,2690.01 5554.12,2697.68 5558.38,2703.17C5562.64,2708.66 5569.21,2711.4 5578.11,2711.4Z" style="fill-rule:nonzero;"/>
                <path d="M5771.5,2870.41C5750.48,2870.22 5734.11,2861.99 5722.38,2845.71C5712.34,2831.89 5707.33,2816.46 5707.33,2799.43C5707.33,2796.4 5707.52,2793.37 5707.89,2790.34C5709.22,2778.79 5711.68,2768.05 5715.28,2758.11C5718.87,2748.18 5723.27,2739.47 5728.48,2731.99C5733.69,2724.51 5739.84,2717.51 5746.94,2710.98C5754.03,2704.45 5761.28,2698.86 5768.66,2694.23C5776.04,2689.59 5784.27,2685.09 5793.36,2680.74C5802.45,2676.39 5811.01,2672.6 5819.06,2669.38C5827.1,2666.16 5835.86,2662.85 5845.32,2659.44C5850.43,2657.55 5854.31,2656.13 5856.96,2655.18L5859.8,2627.36C5860.37,2621.11 5860.65,2615.43 5860.65,2610.32C5860.65,2607.67 5860.65,2605.21 5860.65,2602.94C5860.28,2596.12 5858.19,2590.97 5854.41,2587.46C5850.62,2583.96 5845.04,2582.21 5837.65,2582.21C5819.1,2582.21 5808.5,2594.89 5805.85,2620.26L5802.73,2640.99L5727.77,2637.86C5727.96,2636.73 5728.29,2634.64 5728.76,2631.62C5729.24,2628.59 5729.57,2626.6 5729.76,2625.65C5735.62,2590.64 5748.59,2564.94 5768.66,2548.56C5788.72,2532.19 5815.79,2524 5849.86,2524C5882.99,2524 5906.56,2532.99 5920.57,2550.98C5931.73,2565.36 5937.32,2584.48 5937.32,2608.33C5937.32,2614.39 5936.94,2620.83 5936.18,2627.64L5920,2780.97C5918.11,2798.76 5917.16,2818.73 5917.16,2840.88C5917.16,2848.83 5917.25,2856.97 5917.44,2865.3L5847.03,2865.3C5844.75,2843.91 5843.62,2827.44 5843.62,2815.89C5837.56,2831.23 5828.38,2844.15 5816.07,2854.65C5803.77,2865.16 5788.91,2870.41 5771.5,2870.41ZM5807.84,2809.36C5813.9,2809.36 5820.29,2807 5827.01,2802.26C5833.73,2797.53 5839.07,2792.8 5843.05,2788.07L5852.7,2695.79C5810.68,2717.56 5788.15,2742.26 5785.13,2769.9C5784.75,2772.93 5784.56,2775.86 5784.56,2778.7C5784.56,2787.03 5786.07,2793.75 5789.1,2798.86C5793.08,2805.86 5799.32,2809.36 5807.84,2809.36Z" style="fill-rule:nonzero;"/>
                <path d="M5946.43,2865.3L5981.64,2529.11L6059.15,2529.11L6056.31,2559.5C6084.14,2535.83 6112.53,2524 6141.49,2524C6166.86,2524 6182.1,2537.35 6187.21,2564.04C6217.12,2537.35 6247.22,2524 6277.5,2524C6287.35,2524 6295.77,2526.09 6302.77,2530.25C6309.78,2534.41 6314.79,2539.9 6317.82,2546.72C6320.85,2553.53 6323.03,2561.29 6324.35,2570C6325.11,2574.36 6325.44,2578.71 6325.35,2583.06C6325.25,2587.42 6324.92,2591.77 6324.35,2596.12L6295.96,2865.3L6218.44,2865.3L6244.57,2614.01C6244.94,2610.42 6245.13,2607.1 6245.13,2604.08C6245.13,2598.4 6244.38,2593.85 6242.86,2590.45C6240.21,2585.14 6234.34,2582.49 6225.26,2582.49C6215.22,2582.68 6202.73,2587.8 6187.78,2597.83C6187.78,2599.91 6187.68,2601.05 6187.49,2601.24L6159.67,2865.3L6082.44,2865.3L6108.56,2614.01C6108.94,2610.79 6109.12,2607.77 6109.12,2604.93C6109.31,2598.68 6108.46,2593.85 6106.57,2590.45C6103.92,2585.14 6098.05,2582.49 6088.97,2582.49C6079.31,2582.68 6067.01,2587.7 6052.05,2597.54L6023.94,2865.3L5946.43,2865.3Z" style="fill-rule:nonzero;"/>
                <path d="M6432.56,2870.41C6393.94,2870.41 6367.44,2859.81 6353.05,2838.61C6342.07,2822.33 6336.68,2799.99 6336.87,2771.6C6336.87,2762.89 6337.34,2753.62 6338.29,2743.77L6348.23,2651.21C6352.58,2609 6364.22,2577.24 6383.15,2555.95C6402.08,2534.65 6430.47,2524 6468.33,2524C6488.59,2524 6505.29,2527.08 6518.45,2533.23C6531.61,2539.38 6541.21,2548.23 6547.27,2559.78C6553.7,2571.52 6557.68,2585.71 6559.19,2602.37C6559.76,2608.62 6560.05,2615.24 6560.05,2622.25C6560.05,2633.6 6559.19,2645.91 6557.49,2659.16L6552.95,2701.18L6420.35,2701.18L6414.95,2750.59C6413.82,2761.95 6413.06,2772.36 6412.68,2781.82C6412.68,2782.77 6412.68,2783.81 6412.68,2784.95C6412.68,2793.09 6414.48,2799.8 6418.08,2805.11C6422.05,2811.16 6428.68,2814.1 6437.95,2813.91C6449.12,2813.91 6457.16,2810.07 6462.09,2802.41C6467.01,2794.74 6470.13,2783.53 6471.46,2768.76L6474.3,2742.92L6548.4,2742.92L6546.13,2762.8C6542.54,2797.63 6531.23,2824.27 6512.2,2842.73C6493.18,2861.18 6466.63,2870.41 6432.56,2870.41ZM6424.61,2661.72L6482.81,2661.72L6486.22,2629.63C6486.79,2623.76 6487.07,2618.46 6487.07,2613.73C6487.07,2604.26 6485.94,2597.07 6483.67,2592.15C6480.26,2584.58 6473.07,2580.7 6462.09,2580.51C6450.73,2580.51 6442.59,2584.77 6437.67,2593.28C6432.75,2601.8 6429.06,2617.51 6426.59,2640.42L6424.61,2661.72Z" style="fill-rule:nonzero;"/>
                <path d="M6652.35,2870.41C6624.52,2870.41 6602.57,2862.6 6586.48,2846.99C6570.39,2831.37 6560.83,2808.99 6557.8,2779.83L6619.7,2758.54C6623.86,2796.4 6636.83,2815.33 6658.6,2815.33C6658.98,2815.33 6659.26,2815.33 6659.45,2815.33C6668.16,2814.95 6675.54,2811.83 6681.6,2805.96C6687.65,2800.09 6690.87,2792.8 6691.25,2784.09C6691.25,2783.53 6691.25,2783.05 6691.25,2782.67C6691.25,2770.56 6682.26,2755.98 6664.28,2738.95L6621.68,2698.91C6595.94,2674.87 6583.07,2649.6 6583.07,2623.1C6583.07,2619.5 6583.35,2615.81 6583.92,2612.03C6587.33,2585.14 6598.54,2563.76 6617.57,2547.85C6636.59,2531.95 6659.83,2524 6687.27,2524C6713.4,2524 6733.79,2532 6748.46,2548C6763.13,2563.99 6771.32,2585.24 6773.02,2611.74L6719.36,2633.04C6716.14,2598.02 6704.69,2580.41 6685,2580.22C6684.62,2580.22 6684.34,2580.22 6684.15,2580.22C6676.01,2580.22 6669.2,2582.87 6663.71,2588.17C6658.03,2593.47 6654.81,2599.91 6654.05,2607.48C6654.05,2608.24 6654.05,2608.9 6654.05,2609.47C6654.05,2619.31 6661.44,2631.62 6676.2,2646.38L6719.64,2690.11C6734.22,2703.93 6745.29,2717.84 6752.86,2731.85C6758.92,2743.02 6761.95,2755.89 6761.95,2770.46C6761.95,2774.06 6761.76,2777.75 6761.38,2781.54C6758.35,2809.93 6746.71,2831.84 6726.46,2847.27C6706.2,2862.7 6681.5,2870.41 6652.35,2870.41Z" style="fill-rule:nonzero;"/>
            </g>
            <g transform="matrix(1.7027,0,0,1,-1455.67,-1438.3)">
                <path d="M2059.45,2508.72C2059.45,2444.28 2028.72,2391.96 1990.87,2391.96L1660.99,2391.96C1623.14,2391.96 1592.41,2444.28 1592.41,2508.72L1592.41,2742.23C1592.41,2806.67 1623.14,2858.99 1660.99,2858.99L1990.87,2858.99C2028.72,2858.99 2059.45,2806.67 2059.45,2742.23L2059.45,2508.72Z" style="fill:white;"/>
            </g>
            <g transform="matrix(3.05139,0,0,3.05139,1133.69,816.881)">
                <path d="M114.071,142.049C112.915,147.716 110.328,153.511 106.223,158.841C102.251,163.979 96.022,167.632 89.393,170.136C87.139,178.238 87.6,191.364 87.6,191.364L75.825,190.671C75.825,190.671 75.826,181.199 77.069,173.539C75.341,173.872 73.677,174.118 72.1,174.314C71.493,177.032 71.169,179.856 71.169,182.754C71.169,188.016 72.224,193.045 74.145,197.661C54.961,195.604 40,179.344 40,159.616L40,83.089C40,61.971 57.145,44.825 78.264,44.825L140.123,44.825C134.489,52.8 128.776,61.142 124.781,67.12C105.792,95.549 100.064,109.096 99.362,111.314C100.906,110.029 112.734,98.163 130.909,69.263C134.973,62.796 140.655,53.537 145.869,44.825L203.506,44.825C191.256,52.741 176.372,62.803 165.283,70.736C124.888,99.64 113.764,113.985 111.705,116.645C114.43,115.63 130.779,105.73 171.462,77.184C184.475,68.058 201.048,54.697 212.479,44.825L262.344,44.825C283.462,44.825 300.608,61.971 300.608,83.089L300.608,159.616C300.608,180.734 283.464,197.879 262.344,197.88L154.155,197.88C156.135,193.204 157.225,188.099 157.225,182.754C157.225,173.565 154.004,165.093 148.576,158.279L151.229,155.447C153.976,157.108 158.733,159.522 160.378,157.396C160.941,156.661 160.874,155.705 160.225,154.549C161.653,154.874 162.912,154.797 163.607,153.896C164.595,152.62 163.723,150.681 161.018,148.113C160.809,147.914 160.612,147.721 160.428,147.521C161.757,146.84 162.669,145.521 162.669,143.985C162.669,141.75 160.765,139.946 158.407,139.946C156.352,139.946 154.641,141.301 154.219,143.116C153.999,143.027 153.799,142.948 153.672,142.881C149.807,140.864 147.298,140.53 146.231,141.915C145.614,142.714 145.79,143.717 146.365,144.759C144.762,144.392 143.624,144.597 142.997,145.412C141.455,147.422 144.788,150.664 147.286,152.679L145.378,154.72C137.538,146.919 126.474,142.05 114.201,142.049L114.071,142.049ZM236.45,139.721C246.723,139.721 255.064,148.062 255.064,158.336C255.064,168.61 246.723,176.951 236.45,176.951C226.176,176.951 217.835,168.61 217.835,158.336C217.835,148.062 226.176,139.721 236.45,139.721ZM104.473,157.407C115.91,142.596 115.512,123.892 103.58,115.652C91.644,107.408 72.702,112.743 61.263,127.568C49.823,142.391 56.865,169.983 59.55,172.187C62.235,174.37 93.036,172.236 104.473,157.407ZM79.057,165.942C73.583,163.57 73.188,150.79 80.034,140.462C86.882,130.132 97.553,124.801 103.861,128.547C110.171,132.297 109.738,143.703 102.89,154.03C99.508,159.127 87.218,168.548 79.057,165.942ZM270.442,102.068C280.716,102.068 289.057,110.409 289.057,120.683C289.057,130.957 280.716,139.298 270.442,139.298C260.168,139.298 251.827,130.957 251.827,120.683C251.827,110.409 260.168,102.068 270.442,102.068ZM201.412,102.068C211.685,102.068 220.026,110.409 220.026,120.683C220.026,130.957 211.685,139.298 201.412,139.298C191.138,139.298 182.797,130.957 182.797,120.683C182.797,110.409 191.138,102.068 201.412,102.068ZM236.45,63.369C246.723,63.369 255.064,71.71 255.064,81.984C255.064,92.258 246.723,100.599 236.45,100.599C226.176,100.599 217.835,92.258 217.835,81.984C217.835,71.71 226.176,63.369 236.45,63.369Z"/>
            </g>
            <g transform="matrix(0.812368,0,0,0.812368,460.93,-850.308)">
                <circle cx="1843.97" cy="2505.56" r="43.617"/>
            </g>
            <g transform="matrix(0.812368,0,0,0.812368,357.207,-735.414)">
                <circle cx="1843.97" cy="2505.56" r="43.617"/>
            </g>
            <g transform="matrix(0.812368,0,0,0.812368,250.292,-850.308)">
                <circle cx="1843.97" cy="2505.56" r="43.617"/>
            </g>
            <g transform="matrix(0.812368,0,0,0.812368,357.207,-968.393)">
                <circle cx="1843.97" cy="2505.56" r="43.617"/>
            </g>
        </g>
    </g>
</svg>
