<?xml version="1.0" encoding="UTF-8" standalone="no"?>
<!DOCTYPE svg PUBLIC "-//W3C//DTD SVG 1.1//EN" "http://www.w3.org/Graphics/SVG/1.1/DTD/svg11.dtd">
<svg width="100%" height="100%" viewBox="0 0 101 100" version="1.1" xmlns="http://www.w3.org/2000/svg" xmlns:xlink="http://www.w3.org/1999/xlink" xml:space="preserve" style="fill-rule:evenodd;clip-rule:evenodd;stroke-linejoin:round;stroke-miterlimit:1.41421;">
    <g transform="matrix(4.16667,0,0,4.16667,0.000869813,-0.00101754)">
        <g>
            <g transform="matrix(0.777333,0,0,0.777333,-605.99,10.7428)">
                <circle cx="795.013" cy="1.617" r="14.151"/>
            </g>
            <g transform="matrix(0.848,0,0,0.848,-662.171,10.6285)">
                <path d="M795.196,-12.532C795.857,-12.52 796.514,-12.47 797.167,-12.37C798.489,-12.168 799.78,-11.777 800.991,-11.211C802.382,-10.561 803.664,-9.683 804.775,-8.624C805.925,-7.527 806.89,-6.237 807.615,-4.823C808.223,-3.638 808.66,-2.367 808.911,-1.06C809.205,0.471 809.243,2.051 809.027,3.595C808.825,5.035 808.399,6.441 807.768,7.75C807.028,9.285 806.008,10.683 804.775,11.859C803.498,13.077 801.994,14.054 800.36,14.722C798.667,15.414 796.843,15.768 795.013,15.768C793.184,15.768 791.36,15.414 789.667,14.722C788.033,14.054 786.529,13.077 785.252,11.859C784.019,10.683 782.999,9.285 782.259,7.75C781.628,6.441 781.202,5.035 781,3.595C780.784,2.051 780.822,0.471 781.116,-1.06C781.367,-2.367 781.804,-3.638 782.412,-4.823C783.137,-6.237 784.102,-7.527 785.252,-8.624C786.363,-9.683 787.645,-10.561 789.036,-11.211C790.247,-11.777 791.538,-12.168 792.86,-12.37C793.513,-12.47 794.17,-12.52 794.831,-12.532C795.014,-12.534 795.013,-12.534 795.196,-12.532ZM794.861,-10.174C794.31,-10.164 793.761,-10.122 793.216,-10.039C792.117,-9.871 791.042,-9.545 790.034,-9.074C787.711,-7.989 785.773,-6.141 784.576,-3.873C784.06,-2.895 783.683,-1.844 783.461,-0.76C783.19,0.562 783.148,1.932 783.336,3.268C783.503,4.466 783.858,5.636 784.383,6.726C785.001,8.006 785.851,9.171 786.88,10.152C787.944,11.167 789.198,11.982 790.559,12.539C791.97,13.115 793.49,13.41 795.013,13.41C796.537,13.41 798.057,13.115 799.468,12.539C800.829,11.982 802.083,11.167 803.147,10.152C804.176,9.171 805.026,8.006 805.644,6.726C806.169,5.636 806.523,4.466 806.691,3.268C806.879,1.932 806.837,0.562 806.566,-0.76C806.344,-1.844 805.967,-2.895 805.451,-3.873C804.254,-6.141 802.315,-7.989 799.993,-9.074C798.985,-9.545 797.91,-9.871 796.811,-10.039C796.266,-10.122 795.717,-10.164 795.166,-10.174C795.013,-10.175 795.013,-10.175 794.861,-10.174Z" style="fill:white;fill-rule:nonzero;"/>
            </g>
            <g transform="matrix(1.84571,0,0,1.4632,-1432.35,-60.6345)">
                <path d="M781.555,49.359L779.323,52.623L781.231,52.623L782.527,50.667L783.823,52.623L785.767,52.623L783.475,49.323L785.515,46.419L783.631,46.419L782.551,48.039L781.459,46.419L779.515,46.419L781.555,49.359Z" style="fill:white;fill-rule:nonzero;"/>
            </g>
        </g>
    </g>
</svg>
